<?xml version="1.0" encoding="UTF-8" standalone="no"?>
<svg
   xmlns:dc="http://purl.org/dc/elements/1.1/"
   xmlns:cc="http://creativecommons.org/ns#"
   xmlns:rdf="http://www.w3.org/1999/02/22-rdf-syntax-ns#"
   xmlns:svg="http://www.w3.org/2000/svg"
   xmlns="http://www.w3.org/2000/svg"
   xmlns:xlink="http://www.w3.org/1999/xlink"
   id="svg2"
   xml:space="preserve"
   enable-background="new 0 0 500 500"
   viewBox="0 0 464.34036 160.14908"
   height="160.14908"
   width="464.34036"
   y="0px"
   x="0px"
   version="1.1"><metadata
   id="metadata58"><rdf:RDF><cc:Work
       rdf:about=""><dc:format>image/svg+xml</dc:format><dc:type
         rdf:resource="http://purl.org/dc/dcmitype/StillImage" /><dc:title></dc:title></cc:Work></rdf:RDF></metadata><defs
   id="defs56"><radialGradient
     cx="61.518883"
     cy="132.28575"
     r="29.036913"
     fx="61.518883"
     fy="132.28575"
     id="radialGradient1480"
     xlink:href="#linearGradient2795"
     gradientUnits="userSpaceOnUse"
     gradientTransform="matrix(2.382716e-8,-0.296405,1.43676,4.683673e-7,-128.544,150.5202)" /><linearGradient
     x1="26.648937"
     y1="20.603781"
     x2="135.66525"
     y2="114.39767"
     id="linearGradient1478"
     xlink:href="#linearGradient4689"
     gradientUnits="userSpaceOnUse"
     gradientTransform="matrix(0.562541,0,0,0.567972,-9.399749,-5.305317)" /><linearGradient
     x1="150.96111"
     y1="192.35176"
     x2="112.03144"
     y2="137.27299"
     id="linearGradient1475"
     xlink:href="#linearGradient4671"
     gradientUnits="userSpaceOnUse"
     gradientTransform="matrix(0.562541,0,0,0.567972,-9.399749,-5.305317)" /><radialGradient
     cx="61.518883"
     cy="132.28575"
     r="29.036913"
     fx="61.518883"
     fy="132.28575"
     id="radialGradient2801"
     xlink:href="#linearGradient2795"
     gradientUnits="userSpaceOnUse"
     gradientTransform="matrix(1,0,0,0.177966,0,108.7434)" /><linearGradient
     x1="172.94208"
     y1="76.176224"
     x2="26.670298"
     y2="76.313133"
     id="linearGradient2258"
     xlink:href="#linearGradient4689"
     gradientUnits="userSpaceOnUse"
     gradientTransform="matrix(0.562541,0,0,0.567972,-11.5974,-7.60954)" /><linearGradient
     x1="224.23996"
     y1="144.75717"
     x2="-65.308502"
     y2="144.75717"
     id="linearGradient2255"
     xlink:href="#linearGradient4671"
     gradientUnits="userSpaceOnUse"
     gradientTransform="matrix(0.562541,0,0,0.567972,-11.5974,-7.60954)" /><linearGradient
     x1="224.23996"
     y1="144.75717"
     x2="-65.308502"
     y2="144.75717"
     id="linearGradient2250"
     xlink:href="#linearGradient4671"
     gradientUnits="userSpaceOnUse"
     gradientTransform="translate(100.2702,99.61116)" /><linearGradient
     x1="172.94208"
     y1="77.475983"
     x2="26.670298"
     y2="76.313133"
     id="linearGradient2248"
     xlink:href="#linearGradient4689"
     gradientUnits="userSpaceOnUse"
     gradientTransform="translate(100.2702,99.61116)" /><linearGradient
     x1="224.23996"
     y1="144.75717"
     x2="-65.308502"
     y2="144.75717"
     id="linearGradient2589"
     xlink:href="#linearGradient4671"
     gradientUnits="userSpaceOnUse"
     gradientTransform="translate(100.2702,99.61116)" /><linearGradient
     x1="172.94208"
     y1="77.475983"
     x2="26.670298"
     y2="76.313133"
     id="linearGradient2587"
     xlink:href="#linearGradient4689"
     gradientUnits="userSpaceOnUse"
     gradientTransform="translate(100.2702,99.61116)" /><linearGradient
     x1="172.94208"
     y1="77.475983"
     x2="26.670298"
     y2="76.313133"
     id="linearGradient2990"
     xlink:href="#linearGradient4689"
     gradientUnits="userSpaceOnUse"
     gradientTransform="translate(100.2702,99.61116)" /><linearGradient
     x1="224.23996"
     y1="144.75717"
     x2="-65.308502"
     y2="144.75717"
     id="linearGradient2987"
     xlink:href="#linearGradient4671"
     gradientUnits="userSpaceOnUse"
     gradientTransform="translate(100.2702,99.61116)" /><linearGradient
     id="linearGradient4689"><stop
       style="stop-color:#5a9fd4;stop-opacity:1"
       offset="0"
       id="stop4691" /><stop
       style="stop-color:#306998;stop-opacity:1"
       offset="1"
       id="stop4693" /></linearGradient><linearGradient
     id="linearGradient4671"><stop
       style="stop-color:#ffd43b;stop-opacity:1"
       offset="0"
       id="stop4673" /><stop
       style="stop-color:#ffe873;stop-opacity:1"
       offset="1"
       id="stop4675" /></linearGradient><linearGradient
     id="linearGradient3236"><stop
       style="stop-color:#f4f4f4;stop-opacity:1"
       offset="0"
       id="stop3244" /><stop
       style="stop-color:#ffffff;stop-opacity:1"
       offset="1"
       id="stop3240" /></linearGradient><linearGradient
     id="linearGradient3676"><stop
       style="stop-color:#b2b2b2;stop-opacity:0.5"
       offset="0"
       id="stop3678" /><stop
       style="stop-color:#b3b3b3;stop-opacity:0"
       offset="1"
       id="stop3680" /></linearGradient><linearGradient
     id="linearGradient2787"><stop
       style="stop-color:#7f7f7f;stop-opacity:0.5"
       offset="0"
       id="stop2789" /><stop
       style="stop-color:#7f7f7f;stop-opacity:0"
       offset="1"
       id="stop2791" /></linearGradient><linearGradient
     id="linearGradient2795"><stop
       style="stop-color:#b8b8b8;stop-opacity:0.49803922"
       offset="0"
       id="stop2797" /><stop
       style="stop-color:#7f7f7f;stop-opacity:0"
       offset="1"
       id="stop2799" /></linearGradient></defs>


<g
   transform="translate(-2.4707347,-2.9392938)"
   id="Shadows">
	<linearGradient
   y2="243.8672"
   x2="271"
   y1="243.8672"
   x1="240"
   gradientUnits="userSpaceOnUse"
   id="SVGID_4_">
		<stop
   id="stop41"
   style="stop-color:#020202;stop-opacity:0.26"
   offset="0" />
		<stop
   id="stop43"
   style="stop-color:#020202;stop-opacity:0"
   offset="1" />
	</linearGradient>

	<linearGradient
   y2="91"
   x2="-54"
   y1="91"
   x1="-54"
   gradientUnits="userSpaceOnUse"
   id="SVGID_5_">
		<stop
   id="stop48"
   style="stop-color:#020202"
   offset="0" />
		<stop
   id="stop50"
   style="stop-color:#020202"
   offset="1" />
	</linearGradient>
	<path
   style="fill:url(#SVGID_5_)"
   id="path52"
   d="M -54,91"
   fill="url(#SVGID_5_)" />
</g>
<g
   transform="translate(-2.4707347,-2.9392938)"
   id="g221"><g
     id="Color"
     transform="rotate(90,319.31102,162.32507)">
	<linearGradient
   id="SVGID_1_"
   gradientUnits="userSpaceOnUse"
   x1="240"
   y1="479.16501"
   x2="240"
   y2="14.8252">
		<stop
   offset="0.1227"
   style="stop-color:#FFFFFF"
   id="stop6" />
		<stop
   offset="0.8098"
   style="stop-color:#FFFFFF"
   id="stop8" />
		<stop
   offset="0.85890001"
   style="stop-color:#ffc836;stop-opacity:1;"
   id="stop10" />
	</linearGradient>
	<path
   d="M 240,14.825 C 80.351,153.422 207.544,457.807 214.562,473.597 221.58,489.387 240,466.579 240,466.579 c 0,0 18.42,22.808 25.438,7.018 C 272.456,457.807 399.648,153.422 240,14.825 Z"
   id="path12"
   style="fill:url(#SVGID_1_)" />
	<g
   id="Layer_6">
		<linearGradient
   id="SVGID_2_"
   gradientUnits="userSpaceOnUse"
   x1="231.5005"
   y1="474.7822"
   x2="231.5005"
   y2="347.5">
			<stop
   offset="0"
   style="stop-color:#FCEE21"
   id="stop16" />
			<stop
   offset="1"
   style="stop-color:#FCEE21"
   id="stop18" />
		</linearGradient>
		<path
   d="m 177,347.5 c 0,0 37,120.5 109,65 -5.5,16 -19.5,59.5 -27,59.5 -7.5,0 -19.5,-9.5 -19.5,-9.5 0,0 -14.5,17 -19.5,11 -5,-6 -29,-55.5 -43,-126"
   id="path20"
   style="fill:#ffc836;fill-opacity:1" />
	</g>
	<g
   id="Layer_4">
		<path
   d="m 169,303.667 c 0,0 56.667,179.333 128,67.333 8.667,-39.333 43.332,-174 -2.667,-270.667 C 261,91 177,98.333 175,161.667 c 0,38 26.03096,49.89195 26.03096,49.89195 0,0 -22.60194,-1.29813 -36.83034,-45.89195 C 173.20062,130 185,95 185,95 185,95 221.668,41.667 270.334,51.333 286.334,75 313,127.5 316.5,178 320,228.5 319,291.5 295,384 c -6.5,25.5 -15.5,47 -15.5,47 0,0 -61.5,80 -106.5,-98 -1,-6 -4,-29.333 -4,-29.333"
   id="path23"
   style="fill:#366a96;fill-opacity:1" />
	</g>
	<g
   id="Layer_5">
		<linearGradient
   id="SVGID_3_"
   gradientUnits="userSpaceOnUse"
   x1="228.5229"
   y1="233.9854"
   x2="318.7334"
   y2="233.9854">
			<stop
   offset="0"
   style="stop-color:#E56525"
   id="stop27" />
			<stop
   offset="0.9755"
   style="stop-color:#E56525"
   id="stop29" />
		</linearGradient>
		<path
   d="m 259.5,193.5 c 0,0 -24.5,-4.5 -30,-29.5 -5.5,-25 13.5,-38.5 25,-42.5 11.5,-4 38.5,-5 58,25.5 3.5,21.5 14,97.5 -4,174 -16,25 -34,26.5 -38.5,27.5 14,-8.5 40.089,-25.62 44.5,-69 1.5,-14.75 3.488,-12.741 2.25,-21.75 C 308.5,197.75 299,170 284.5,153 c -17,-22.5 -36,-24.5 -45.5,-11 -9.5,13.5 -2,29.5 3.5,37 5.5,7.5 10.5,11.5 17,14.5 z"
   id="path31"
   style="fill:#366a96;fill-opacity:1" />
	</g>
	<g
   id="Layer_3">
		<path
   d="m 166,282 c 0,0 53,196 137,65 12,-67 17,-93 14,-162 -10,-37 -56,-113.333 -119,-60 -21.667,19.333 -17.79108,78.8784 3,86.13333 C 186.13333,209.4 155.73088,165.21378 192,112 204,97 252.333,74.333 295,95 c 15,43 45,118 0,289 -19,24 -65,101 -127,-78 0,-13 -2,-24 -2,-24"
   id="path34"
   style="fill:#ffc836;fill-opacity:1" />
	</g>
</g><g
     id="Outline"
     transform="rotate(90,319.31102,162.32507)">
	<path
   d="M 240,14.825 C 80.351,153.422 207.544,457.807 214.562,473.597 221.58,489.387 240,466.579 240,466.579 c 0,0 18.42,22.808 25.438,7.018 C 272.456,457.807 399.648,153.422 240,14.825 Z M 264.383,464.91 C 257.656,480.047 240,458.183 240,458.183 c 0,0 -17.657,21.863 -24.384,6.727 C 208.89,449.775 86.97,158.012 240,25.162 c 153.029,132.85 31.109,424.613 24.383,439.748 z"
   id="path37" />
</g><g
     id="g2303"
     transform="translate(-336.2262,11.67181)"><path
       d="m 573.24841,14.779683 c -4.58365,0.0213 -8.96094,0.412216 -12.8125,1.093749 -11.34621,2.004503 -13.40625,6.200102 -13.40625,13.9375 v 10.21875 h 26.8125 v 3.40625 h -26.8125 -10.0625 c -7.79246,0 -14.61576,4.683717 -16.75,13.59375 -2.46182,10.212966 -2.57101,16.586023 0,27.25 1.90593,7.937852 6.45755,13.593748 14.25,13.59375 h 9.21875 v -12.25 c 0,-8.849902 7.65715,-16.656248 16.75,-16.65625 h 26.78125 c 7.45495,0 13.40626,-6.138164 13.40625,-13.625 v -25.53125 c 0,-7.266339 -6.12998,-12.724778 -13.40625,-13.9375 -4.60598,-0.766726 -9.38509,-1.115048 -13.96875,-1.093749 z m -14.5,8.218749 c 2.76955,0 5.03125,2.298646 5.03125,5.125 0,2.816336 -2.2617,5.09375 -5.03125,5.09375 -2.77947,-1e-6 -5.03125,-2.277415 -5.03125,-5.09375 0,-2.826353 2.25178,-5.125 5.03125,-5.125 z"
       style="fill:#366a96;fill-opacity:1"
       id="path1948" /><path
       d="m 603.96716,43.435932 v 11.90625 c 0,9.230755 -7.82589,16.999999 -16.75,17 h -26.78125 c -7.33583,0 -13.40625,6.278483 -13.40625,13.625 v 25.531248 c 0,7.26634 6.31859,11.54032 13.40625,13.625 8.48733,2.49561 16.62624,2.94663 26.78125,0 6.75016,-1.95439 13.40626,-5.88761 13.40625,-13.625 v -10.21875 h -26.78125 v -3.406248 h 26.78125 13.40626 c 7.79246,0 10.69625,-5.435408 13.40624,-13.59375 2.79933,-8.398886 2.68022,-16.475776 0,-27.25 -1.92578,-7.757441 -5.60387,-13.59375 -13.40624,-13.59375 z m -15.0625,64.656248 c 2.77948,1e-5 5.03125,2.27742 5.03125,5.09375 0,2.82635 -2.25177,5.125 -5.03125,5.125 -2.76955,0 -5.03125,-2.29865 -5.03125,-5.125 0,-2.81633 2.2617,-5.09375 5.03125,-5.09375 z"
       style="fill:#ffc836;fill-opacity:1"
       id="path1950" /></g></g></svg>
